#!OML:ASF H:\Dans Jumps\Project 1\Capture day 1\Session 1\subject.ASF
:FULLY-SPECIFIED
:DEGREES
385
root 0.492608 17.6042 5.54426 8.88838 -1.78195 -1.11564
lowerback 6.25029 0.388851 -0.946234
upperback 4.86939 0.463141 1.27711
thorax 1.49546 0.186374 1.82198
lowerneck -14.6009 -0.0201216 -1.17581
upperneck 29.069 0.117091 0.569761
head 11.9517 -0.00598725 0.432453
rclavicle 3.67752e-015 2.78299e-015
rhumerus -29.1812 -20.2159 -72.4427
rradius 21.4542
rwrist 41.8871
rhand -22.8647 -27.4992
rfingers 7.12502
rthumb 3.57371 -57.449
lclavicle 3.67752e-015 2.78299e-015
lhumerus -31.4532 18.1335 73.9678
lradius 9.53853
lwrist -9.26583
lhand -27.1484 -6.04773
lfingers 7.12502
lthumb -0.563443 23.9313
rfemur -24.4957 -2.62659 20.4019
rtibia 27.6375
rfoot -10.4825 1.39684
rtoes 14.094
lfemur -23.5117 5.71624 -18.1305
ltibia 24.1359
lfoot -6.46115 5.06067
ltoes -1.58658
386
root 0.499517 17.6139 5.58185 8.95151 -1.69923 -1.09123
lowerback 6.07914 0.326609 -0.926717
upperback 4.85344 0.382092 1.30319
thorax 1.57695 0.145502 1.84258
lowerneck -14.5892 0.00165546 -1.15702
upperneck 29.1412 0.156312 0.523864
head 11.9776 0.00724206 0.417902
rclavicle 3.03147e-015 1.59028e-015
rhumerus -29.4653 -20.3526 -72.0578
rradius 21.3281
rwrist 42.1225
rhand -22.6727 -27.459
rfingers 7.12502
rthumb 3.7592 -57.4056
lclavicle 3.03147e-015 1.59028e-015
lhumerus -31.3427 18.3325 73.7706
lradius 9.43183
lwrist -9.45583
lhand -27.5432 -5.96603
lfingers 7.12502
lthumb -0.94472 24.0116
rfemur -24.2577 -2.54902 20.3229
rtibia 27.3581
rfoot -10.4933 1.22893
rtoes 14.031
lfemur -23.2856 5.74389 -18.1986
ltibia 23.7995
lfoot -6.44723 4.97965
ltoes -1.62149
387
root 0.506115 17.6227 5.61889 9.01007 -1.6049 -1.07467
lowerback 5.91173 0.268693 -0.904698
upperback 4.83793 0.30668 1.33626
thorax 1.65669 0.107419 1.86834
lowerneck -14.5802 0.0183623 -1.13834
upperneck 29.2152 0.187469 0.481327
head 12.0048 0.0173272 0.403476
rclavicle 1.78906e-015 7.7526e-015
rhumerus -29.7524 -20.5376 -71.6556
rradius 21.205
rwrist 42.3788
rhand -22.4778 -27.4035
rfingers 7.12502
rthumb 3.9474 -57.3467
lclavicle 1.78906e-015 7.7526e-015
lhumerus -31.2182 18.5246 73.6061
lradius 9.37086
lwrist -9.67204
lhand -27.9135 -5.93795
lfingers 7.12502
lthumb -1.3024 24.0378
rfemur -24.0325 -2.48491 20.255
rtibia 27.1083
rfoot -10.5135 1.06796
rtoes 13.9768
lfemur -23.0691 5.7369 -18.251
ltibia 23.4854
lfoot -6.43359 4.92175
ltoes -1.64386
388
root 0.512581 17.6308 5.65516 9.06147 -1.50044 -1.04826
lowerback 5.75427 0.214468 -0.896799
upperback 4.82129 0.235431 1.3713
thorax 1.72965 0.0710814 1.90351
lowerneck -14.5699 0.0316667 -1.12001
upperneck 29.2874 0.212416 0.443847
head 12.0313 0.0253002 0.390094
rclavicle 2.68359e-015 1.19271e-015
rhumerus -30.048 -20.7738 -71.2347
rradius 21.0888
rwrist 42.6543
rhand -22.2863 -27.3371
rfingers 7.12502
rthumb 4.13229 -57.2768
lclavicle 2.68359e-015 1.19271e-015
lhumerus -31.0857 18.7099 73.4702
lradius 9.36516
lwrist -9.94394
lhand -28.251 -5.95714
lfingers 7.12502
lthumb -1.62833 24.0164
rfemur -23.8144 -2.44124 20.1789
rtibia 26.8815
rfoot -10.5419 0.919312
rtoes 13.9259
lfemur -22.856 5.69975 -18.3085
ltibia 23.1854
lfoot -6.41942 4.87842
ltoes -1.65927
389
root 0.519274 17.6386 5.69138 9.10273 -1.38679 -1.01105
lowerback 5.60065 0.164064 -0.894893
upperback 4.80513 0.168948 1.40392
thorax 1.8009 0.0370139 1.93907
lowerneck -14.5505 0.0390885 -1.10414
upperneck 29.3526 0.226719 0.415791
head 12.0531 0.0295445 0.379086
rclavicle -4.67144e-015 -1.27222e-014
rhumerus -30.3602 -21.0565 -70.7992
rradius 20.985
rwrist 42.927
rhand -22.1055 -27.2599
rfingers 7.12502
rthumb 4.30693 -57.1961
lclavicle -4.67144e-015 -1.27222e-014
lhumerus -30.9554 18.8911 73.3491
lradius 9.42566
lwrist -10.2872
lhand -28.5223 -6.01396
lfingers 7.12502
lthumb -1.89033 23.9574
rfemur -23.592 -2.42559 20.0931
rtibia 26.6701
rfoot -10.5802 0.789455
rtoes 13.882
lfemur -22.6349 5.64492 -18.3754
ltibia 22.8921
lfoot -6.4096 4.83846
ltoes -1.67843
390
root 0.525747 17.6461 5.72695 9.13801 -1.27649 -0.974529
lowerback 5.45763 0.121016 -0.896634
upperback 4.78524 0.112013 1.43791
thorax 1.86216 0.00769274 1.97743
lowerneck -14.525 0.0417492 -1.09153
upperneck 29.4119 0.233101 0.394322
head 12.0714 0.0308138 0.369936
rclavicle -9.93923e-016 -5.96354e-015
rhumerus -30.6871 -21.3827 -70.35
rradius 20.8888
rwrist 43.1831
rhand -21.9336 -27.1891
rfingers 7.12502
rthumb 4.47285 -57.1218
lclavicle -9.93923e-016 -5.96354e-015
lhumerus -30.8327 19.0522 73.2478
lradius 9.56953
lwrist -10.6607
lhand -28.6823 -6.05123
lfingers 7.12502
lthumb -2.04486 23.9187
rfemur -23.3703 -2.40275 20.0092
rtibia 26.467
rfoot -10.6194 0.654419
rtoes 13.8289
lfemur -22.4104 5.58895 -18.4377
ltibia 22.6011
lfoot -6.40017 4.797
ltoes -1.70096
391
root 0.532318 17.6535 5.7621 9.16668 -1.16797 -0.930387
lowerback 5.31739 0.0834011 -0.904146
upperback 4.76578 0.062068 1.4684
thorax 1.92213 -0.0182355 2.01498
lowerneck -14.4977 0.0401995 -1.08166
upperneck 29.4626 0.231611 0.381453
head 12.086 0.029453 0.363321
rclavicle 2.98177e-016 4.57205e-015
rhumerus -31.0224 -21.7338 -69.9009
rradius 20.8038
rwrist 43.3926
rhand -21.7694 -27.1241
rfingers 7.12502
rthumb 4.63148 -57.0534
lclavicle 2.98177e-016 4.57205e-015
lhumerus -30.7108 19.202 73.1585
lradius 9.8055
lwrist -11.0172
lhand -28.6593 -5.93223
lfingers 7.12502
lthumb -2.02265 24.0379
rfemur -23.1427 -2.38839 19.919
rtibia 26.2636
rfoot -10.6587 0.524603
rtoes 13.7652
lfemur -22.1806 5.53992 -18.5079
ltibia 22.3145
lfoot -6.40058 4.74519
ltoes -1.71595
392
root 0.538829 17.661 5.79707 9.19329 -1.06411 -0.892659
lowerback 5.17493 0.0528019 -0.902782
upperback 4.74406 0.0217473 1.49649
thorax 1.98069 -0.0390544 2.04455
lowerneck -14.4686 0.0327811 -1.06818
upperneck 29.508 0.219563 0.372383
head 12.0982 0.0243501 0.355964
rclavicle -3.27995e-015 -2.127e-014
rhumerus -31.3659 -22.109 -69.4551
rradius 20.7208
rwrist 43.5493
rhand -21.6228 -27.0712
rfingers 7.12502
rthumb 4.77298 -56.9974
lclavicle -3.27995e-015 -2.127e-014
lhumerus -30.5966 19.3355 73.0759
lradius 10.1154
lwrist -11.3301
lhand -28.5087 -5.79759
lfingers 7.12502
lthumb -1.87719 24.1739
rfemur -22.9101 -2.37733 19.8388
rtibia 26.0532
rfoot -10.6953 0.398187
rtoes 13.6929
lfemur -21.9507 5.5091 -18.5713
ltibia 22.0366
lfoot -6.41548 4.67799
ltoes -1.72455
393
root 0.544886 17.6683 5.83162 9.2164 -0.971844 -0.869195
lowerback 5.03446 0.0311806 -0.891364
upperback 4.72142 -0.00639462 1.52478
thorax 2.03672 -0.0534961 2.06815
lowerneck -14.4335 0.0198002 -1.05938
upperneck 29.5402 0.197635 0.373622
head 12.104 0.0157419 0.351817
rclavicle -6.4605e-015 -1.03368e-014
rhumerus -31.7072 -22.5059 -69.0189
rradius 20.635
rwrist 43.6558
rhand -21.494 -27.0315
rfingers 7.12502
rthumb 4.89732 -56.9549
lclavicle -6.4605e-015 -1.03368e-014
lhumerus -30.2816 18.4357 73.6341
lradius 10.4791
lwrist -10.4061
lhand -28.4453 -5.63785
lfingers 7.12502
lthumb -1.81599 24.3342
rfemur -22.6709 -2.35186 19.7772
rtibia 25.8313
rfoot -10.7245 0.263981
rtoes 13.5978
lfemur -21.7224 5.50488 -18.618
ltibia 21.7715
lfoot -6.44525 4.59627
ltoes -1.71644
394
root 0.550802 17.6756 5.86627 9.23579 -0.889229 -0.85658
lowerback 4.8886 0.0167115 -0.867764
upperback 4.69976 -0.0247277 1.55054
thorax 2.09635 -0.0626954 2.0819
lowerneck -14.3949 -0.00106166 -1.05919
upperneck 29.5636 0.16242 0.388995
head 12.1056 0.00213737 0.352531
rclavicle -2.88238e-015 -7.7526e-015
rhumerus -32.0425 -22.9103 -68.6008
rradius 20.5461
rwrist 43.7134
rhand -21.3796 -27.0118
rfingers 7.12502
rthumb 5.00785 -56.9327
lclavicle -2.88238e-015 -7.7526e-015
lhumerus -29.97 17.4664 74.2233
lradius 10.8793
lwrist -9.32549
lhand -28.3904 -5.60297
lfingers 7.12502
lthumb -1.76296 24.3695
rfemur -22.4216 -2.33837 19.7315
rtibia 25.5978
rfoot -10.7509 0.147121
rtoes 13.4926
lfemur -21.4952 5.52883 -18.6547
ltibia 21.5234
lfoot -6.49269 4.49818
ltoes -1.69567
395
root 0.556256 17.6828 5.90083 9.25311 -0.816445 -0.866372
lowerback 4.73975 0.0101657 -0.824145
upperback 4.67697 -0.032094 1.57733
thorax 2.15601 -0.0658633 2.0851
lowerneck -14.3501 -0.0297316 -1.06722
upperneck 29.5772 0.114132 0.41765
head 12.1021 -0.0164367 0.357748
rclavicle -1.98785e-016 1.19271e-015
rhumerus -32.3712 -23.3133 -68.2028
rradius 20.4523
rwrist 43.732
rhand -21.2774 -26.9947
rfingers 7.12502
rthumb 5.10651 -56.9131
lclavicle -1.98785e-016 1.19271e-015
lhumerus -29.6664 16.4838 74.811
lradius 11.2961
lwrist -8.13547
lhand -28.3725 -5.75688
lfingers 7.12502
lthumb -1.7457 24.2157
rfemur -22.1678 -2.32461 19.7139
rtibia 25.3567
rfoot -10.774 0.0419819
rtoes 13.3923
lfemur -21.2728 5.57713 -18.6665
ltibia 21.2914
lfoot -6.54981 4.38812
ltoes -1.66013
396
root 0.561038 17.6897 5.93493 9.26957 -0.754767 -0.88579
lowerback 4.5941 0.010771 -0.779171
upperback 4.64888 -0.0300539 1.60412
thorax 2.20804 -0.0641881 2.08727
lowerneck -14.2998 -0.0637054 -1.07799
upperneck 29.5843 0.0573841 0.451382
head 12.095 -0.0384021 0.36412
rclavicle -1.88845e-015 1.92821e-014
rhumerus -32.6963 -23.6968 -67.8271
rradius 20.359
rwrist 43.7213
rhand -21.1746 -26.9777
rfingers 7.12502
rthumb 5.20575 -56.8938
lclavicle -1.88845e-015 1.92821e-014
lhumerus -29.3849 15.5121 75.3867
lradius 11.7356
lwrist -6.83467
lhand -28.4006 -6.09112
lfingers 7.12502
lthumb -1.77279 23.8813
rfemur -21.916 -2.30957 19.7107
rtibia 25.1134
rfoot -10.7918 -0.0508217
rtoes 13.2948
lfemur -21.0588 5.64248 -18.6664
ltibia 21.0744
lfoot -6.60931 4.27159
ltoes -1.61937
397
root 0.565665 17.6964 5.96893 9.28307 -0.697372 -0.90545
lowerback 4.44833 0.0140514 -0.734263
upperback 4.6172 -0.0245429 1.62733
thorax 2.2563 -0.0606582 2.0857
lowerneck -14.2439 -0.0992397 -1.08709
upperneck 29.5851 -0.00203078 0.484854
head 12.0842 -0.061391 0.369714
rclavicle -2.88238e-015 2.38542e-015
rhumerus -33.0116 -24.0606 -67.4762
rradius 20.2635
rwrist 43.7099
rhand -21.056 -26.9557
rfingers 7.12502
rthumb 5.32024 -56.8689
lclavicle -2.88238e-015 2.38542e-015
lhumerus -29.1157 14.5668 75.9445
lradius 12.1948
lwrist -5.42165
lhand -28.4596 -6.49162
lfingers 7.12502
lthumb -1.82979 23.4803
rfemur -21.6652 -2.32034 19.711
rtibia 24.8751
rfoot -10.8102 -0.109198
rtoes 13.2153
lfemur -20.848 5.71441 -18.6668
ltibia 20.8701
lfoot -6.67117 4.15096
ltoes -1.58211
